<svg width="31" height="35" viewBox="0 0 31 35" fill="none" xmlns="http://www.w3.org/2000/svg">
<path d="M4.13155 8.05945V6.55945C3.36362 6.55945 2.71972 7.13942 2.63971 7.90316L4.13155 8.05945ZM2 28.4057L0.508164 28.2494L0.5 28.3273V28.4057H2ZM16.2105 9.55945C17.039 9.55945 17.7105 8.88788 17.7105 8.05945C17.7105 7.23102 17.039 6.55945 16.2105 6.55945V9.55945ZM16.2105 34.5C17.039 34.5 17.7105 33.8284 17.7105 33C17.7105 32.1716 17.039 31.5 16.2105 31.5V34.5ZM26.8685 8.05945L28.3603 7.90316C28.2803 7.13942 27.6364 6.55945 26.8685 6.55945V8.05945ZM29 28.4057H30.5V28.3273L30.4918 28.2494L29 28.4057ZM14.7895 6.55945C13.961 6.55945 13.2895 7.23102 13.2895 8.05945C13.2895 8.88788 13.961 9.55945 14.7895 9.55945V6.55945ZM14.7895 31.5C13.961 31.5 13.2895 32.1716 13.2895 33C13.2895 33.8284 13.961 34.5 14.7895 34.5V31.5ZM19.6842 12.6538C19.6842 13.4822 20.3558 14.1538 21.1842 14.1538C22.0126 14.1538 22.6842 13.4822 22.6842 12.6538H19.6842ZM21.1842 6.74679H22.6842V6.65578L22.6732 6.56543L21.1842 6.74679ZM9.81579 6.74679L8.32351 6.59481L8.31579 6.6706V6.74679H9.81579ZM8.31579 12.6538C8.31579 13.4822 8.98736 14.1538 9.81579 14.1538C10.6442 14.1538 11.3158 13.4822 11.3158 12.6538H8.31579ZM2.63971 7.90316L0.508164 28.2494L3.49184 28.562L5.62338 8.21574L2.63971 7.90316ZM4.13155 9.55945H16.2105V6.55945H4.13155V9.55945ZM0.5 28.4057C0.5 29.976 0.92723 31.5507 2.08023 32.7341C3.24202 33.9265 4.9241 34.5 6.97365 34.5V31.5C5.4706 31.5 4.66586 31.089 4.22897 30.6406C3.7833 30.1831 3.5 29.4607 3.5 28.4057H0.5ZM6.97365 34.5H16.2105V31.5H6.97365V34.5ZM25.3766 8.21574L27.5082 28.562L30.4918 28.2494L28.3603 7.90316L25.3766 8.21574ZM26.8685 6.55945H14.7895V9.55945H26.8685V6.55945ZM27.5 28.4057C27.5 29.4607 27.2167 30.1831 26.771 30.6406C26.3341 31.089 25.5294 31.5 24.0263 31.5V34.5C26.0759 34.5 27.758 33.9265 28.9198 32.7341C30.0728 31.5507 30.5 29.976 30.5 28.4057H27.5ZM24.0263 31.5H14.7895V34.5H24.0263V31.5ZM22.6842 12.6538V6.74679H19.6842V12.6538H22.6842ZM22.6732 6.56543C22.1703 2.43634 18.6512 0.494145 15.4483 0.500016C12.2475 0.505884 8.7442 2.46412 8.32351 6.59481L11.3081 6.89877C11.53 4.71997 13.3242 3.50391 15.4538 3.50001C17.581 3.49611 19.4249 4.70867 19.6952 6.92815L22.6732 6.56543ZM8.31579 6.74679V12.6538H11.3158V6.74679H8.31579Z" fill="#1C1C1C"/>
</svg>
